<svg xmlns:xlink="http://www.w3.org/1999/xlink" xmlns="http://www.w3.org/2000/svg" class="gnt_n_lg_svg" id="gnt_svg_lg" fill="#303030" preserveAspectRatio="xMinYMid meet" viewBox="0 0 285.62 31.58" width="422"  height="56" ><path d="M284.96 11.53l-.13-3.73c-1.7.07-3.33-.48-5.06-.48-4.28 0-8.05 1.97-8.05 6.8 0 8.6 11.59 4.9 11.59 11.97 0 2.93-2.27 4.23-4.86 4.23-2.2 0-4.83-1-5.58-3.37h-.59l.13 3.47c1.96.62 4 .95 6.06.99 4.04 0 7.14-2.27 7.14-6.6 0-7.98-11.6-4.82-11.6-11.96 0-3.04 2.57-4.44 5.24-4.44 2.07 0 4.43.95 5.12 3.13h.59M268.3 7.35h-.59c-.17.33-.36.53-1.09.53h-13.07v.6c1.71.07 1.84.33 1.84 10.67v9.25c0 1.47-.48 1.93-1.84 2v.48h10.58c1.46-.05 2.92.05 4.37.3l.48-3.63-.52-.1c-.6 1.33-1.51 2.3-3.61 2.3h-6.81V19.64h5.75c1.84 0 2.46.43 2.82 1.67h.6c-.03-.73-.1-1.5-.1-2.27s.07-1.53.1-2.23h-.59c-.36 1.27-.99 1.7-2.82 1.7h-5.75v-3.37c-.02-2.05.06-4.1.26-6.14h5.12c2.76 0 3.97.87 4.28 2.38h.59V7.35zm-40.26 0h-.59l-1.25 19.21c-.2 2.9-.48 3.47-2.2 3.87v.6c.95 0 1.87-.13 2.82-.13s1.94.13 2.86.13v-.61c-1.11-.13-2.03-.95-2.03-3.27 0-.87 0-2.4.06-3.27l.62-10.47h.16l9.52 16.88 8.15-16.84h.13l.66 11.83c.03.54.1 1.6.1 2.86 0 1.25-.26 2.17-1.64 2.27v.6c.82 0 1.81-.13 2.76-.13 1.15 0 2.13.13 3.08.13v-.59c-1.43-.23-1.64-.53-1.77-3.23l-.95-19.84h-.56l-9.21 19.11-10.72-19.11zm-6.1.4c-.99 0-1.97.13-3.09.13-.99 0-1.97-.13-2.98-.13v.6c1.28 0 1.64.95 1.64 2l.16 18.09c0 1.03-.52 2-1.43 2v.6c.66 0 1.64-.13 2.63-.13 1.12 0 2.1.13 2.79.13v-.63c-.99 0-1.51-.95-1.51-2l.17-18.09c0-1.03.36-2 1.64-2l-.02-.57zm-22.9-5.24l.13 25.13c0 1.62-.6 2.06-2.97 2.62v.79c1.55 0 3.1-.18 4.65-.18s3.09.18 4.65.18v-.78c-2.24-.57-2.88-1-2.88-2.62l.13-25.13h6.03c2.8 0 3.75.74 4.52 3.06h.78l.15-5.55h-.21c-.81.31-1.67.49-2.54.52-3.53 0-7.06.18-10.59.18S193.83.55 190.3.55a8.15 8.15 0 01-2.54-.52h-.19l.17 5.55h.78c.78-2.32 1.72-3.06 4.52-3.06l6-.01zm-37.98 15.96c0-2.38.13-4.76.23-7.17.1-2.63.48-2.83 3.45-2.83 6.37 0 10.91 4.5 10.91 11.42 0 7.37-4.44 10.2-11.23 10.2-2.76 0-3.33-.53-3.33-1.97l-.03-9.65zm-2.62 9.94c0 1.03-.43 2-1.55 2v.6c1.55 0 3.09-.13 4.63-.13s3.09.13 4.63.13c6.93 0 12.61-3.77 12.61-10.9 0-7.57-5.58-12.38-12.61-12.38-1.54 0-3.09.13-4.63.13s-3.08-.13-4.7-.13v.6c1.19 0 1.61.95 1.61 2l.01 18.08zm-24.73-9.04c0-6.1 2.59-10.97 8.74-10.97s8.74 4.87 8.74 10.97-2.59 10.95-8.74 10.95c-6.14-.01-8.74-4.85-8.74-10.95zm-3.11 0c0 6.84 5.02 12.03 11.86 12.03s11.85-5.2 11.85-12.03-5.02-12.04-11.85-12.04c-6.84 0-11.86 5.21-11.86 12.04zm-2.38 6.56l-.56-.3c-2.07 3.24-5 4.55-10.12 4.55-7.2 0-13.05-7.78-13.05-14.39 0-9.23 5.34-14.39 13.05-14.39 3.23 0 7.62 1.27 9.13 4.64h.78l-.48-4.68c-.21.04-.43.22-.6.22-.85 0-4.95-1.58-8.8-1.58-10.3 0-17.14 6.38-17.14 15.79s6.85 15.79 17.14 15.79c3.1-.01 6.18-.43 9.17-1.22l1.48-4.43zM84.42 6.94h-.6c-.17.34-.37.54-1.1.54H69.43v.61c1.74.07 1.87.34 1.87 10.84v9.43c0 1.49-.5 1.97-1.87 2.04v.48h10.75c1.49-.05 2.98.05 4.44.3l.5-3.69-.53-.1c-.6 1.36-1.54 2.34-3.68 2.34h-6.94V19.46h5.84c1.87 0 2.5.44 2.86 1.69h.62c-.03-.75-.1-1.52-.1-2.3 0-.78.07-1.56.1-2.27h-.6c-.37 1.29-1 1.73-2.86 1.73h-5.86v-3.42a59.2 59.2 0 01.27-6.24h5.21c2.8 0 4.04.88 4.37 2.4h.6V6.94zM53.78 28.37c0 1.05-.43 2.04-1.57 2.04v.61c.83 0 1.83-.14 2.86-.14 1.13 0 2.13.14 2.97.14v-.62c-1.14 0-1.57-.99-1.57-2.04l.07-7.73c.95.07 1.94.2 3.07.2 3.81 0 7.65-2.38 7.65-6.66 0-4.98-3.94-6.81-7.48-6.81-1.27 0-2.54.14-3.81.14s-2.54-.14-3.81-.14v.61c1.2 0 1.63.99 1.63 2.03l-.01 18.37zm2.74-14.14c0-2.03.13-3.59.13-4.28 0-1.49.4-1.69 2.14-1.69 4.44 0 5.54 2.86 5.54 5.86 0 3.22-1.2 5.93-5.14 5.93-2.47 0-2.67-.61-2.67-1.32v-4.5zM39.26 11.8l3.94 11.05h-8.38l4.44-11.05zm4.37 12.44l1.3 3.56c.21.46.33.96.37 1.46 0 .4-.73.85-1.17 1.15v.61c1 0 2-.14 3.01-.14 1 0 2 .14 3 .14v-.62c-1.6-.61-2.07-1.22-2.64-2.86l-7.25-20.6h-.57L31.6 27.56c-.6 1.49-.84 2.3-2.5 2.86v.61c1.03 0 1.9-.14 2.77-.14.87 0 1.7.14 2.54.14v-.63c-.84-.3-1.43-.75-1.43-1.36-.02-.62.06-1.24.23-1.83l1.06-2.98h9.36zm-15.81 1.69l-.56-.3c-2.07 3.24-5 4.55-10.13 4.55-7.19 0-13.05-7.8-13.05-14.39C4.08 6.56 9.42 1.4 17.13 1.4c3.23 0 7.62 1.27 9.14 4.64h.78l-.48-4.68c-.21.04-.43.22-.6.22-.86 0-4.96-1.58-8.84-1.58C6.84 0-.01 6.38-.01 15.79s6.85 15.79 17.14 15.79a36.5 36.5 0 009.18-1.22l1.51-4.43z" fill="#303030"></path></svg>